<svg data-v-1084b650="" xmlns="http://www.w3.org/2000/svg" viewBox="0 0 300 300"><!----> <!----> <rect data-v-1084b650="" fill="#ffffff" x="0" y="0" width="300px" height="300px" class="logo-background-square"></rect> <!----> <g data-v-1084b650="" id="1c199265-67a1-8162-0885-b2b34e69af47" fill="#000000" transform="matrix(1.9000000000000001,0,0,1.9000000000000001,29.606502234935746,163.46150020360946)"><path d="M2.09 7.03L0.83 7.03L0.83 8.95L2.37 10.57L4.37 10.57L5.91 8.95L5.91 6.12L2.16 3.49L2.16 2.03L2.93 1.20L3.81 1.20L4.59 2.03L4.59 3.12L5.85 3.12L5.85 1.51L4.35-0.06L2.39-0.06L0.90 1.51L0.90 4.14L4.66 6.78L4.66 8.44L3.84 9.31L2.91 9.31L2.09 8.44ZM1.51 7.56L1.51 8.67L2.66 9.87L4.09 9.87L5.24 8.67L5.24 6.48L1.46 3.85L1.46 1.76L2.63 0.52L4.12 0.52L5.29 1.76L5.29 2.58L5.17 2.58L5.17 1.81L4.06 0.64L2.69 0.64L1.58 1.81L1.58 3.79L5.35 6.41L5.35 8.72L4.14 10.00L2.60 10.00L1.39 8.72L1.39 7.56ZM12.22 1.72L11.03 0.55L9.60 0.55L8.43 1.72L8.43 8.61L9.60 9.87L11.03 9.87L12.22 8.61ZM12.91 1.46L11.33-0.13L9.32-0.13L7.74 1.46L7.74 8.86L9.31 10.54L11.33 10.54L12.91 8.86ZM12.35 8.65L11.09 10.00L9.55 10.00L8.30 8.65L8.30 1.68L9.55 0.42L11.09 0.42L12.35 1.68ZM10.78 9.28L9.86 9.28L9.00 8.37L9.00 1.97L9.84 1.13L10.79 1.13L11.63 1.97L11.63 8.37ZM20.66 10.49L21.94 10.49L21.94 0.01L19.40 0.01L18.82 4.17L18.45 7.45L18.41 7.45L18.03 4.12L17.44 0.01C16.31 0.01 16.04 0.01 14.91 0.01L14.91 10.49L16.18 10.49L16.18 1.26L16.34 1.26L17.64 9.69L19.25 9.69L20.51 1.26L20.66 1.26ZM16.83 0.69L15.61 0.69L15.61 9.95L15.48 9.95L15.48 0.56L16.94 0.56L18.21 9.02L18.66 9.02L19.91 0.56L21.36 0.56L21.36 9.95L21.24 9.95L21.24 0.69L20.02 0.69L18.77 9.13L18.10 9.13ZM25.21 4.68L25.21 1.29L28.24 1.29L28.24 0.01C26.54 0.01 25.63 0.01 23.94 0.01L23.94 10.50L28.43 10.50L28.43 9.23L25.21 9.23L25.21 5.95L27.75 5.95L27.75 4.68ZM27.66 0.59L27.66 0.71L24.64 0.71L24.64 5.24L27.22 5.24L27.22 5.38L24.64 5.38L24.64 9.80L27.86 9.80L27.86 9.93L24.51 9.93L24.51 0.59ZM30.88 10.50L32.16 10.50L32.16 1.15L34.02 1.15L34.02 0L29.04 0L29.04 1.15L30.88 1.15ZM31.46 9.97L31.46 0.62L29.57 0.62L29.57 0.49C30.95 0.49 32.09 0.49 33.49 0.49L33.49 0.62L31.58 0.62L31.58 9.97ZM36.67 10.50L36.67 5.88L39.03 5.88L39.03 10.50L40.31 10.50L40.31 0.04L39.03 0.04L39.03 4.66L36.67 4.66L36.67 0.04L35.39 0.04L35.39 10.50ZM35.97 0.62L36.09 0.62L36.09 5.21L39.61 5.21L39.61 0.57L39.73 0.57L39.73 9.97L39.61 9.97L39.61 5.33L36.09 5.33L36.09 9.97L35.97 9.97ZM43.58 10.50L43.58 0C42.49 0 43.40 0 42.31 0L42.31 10.50ZM42.88 0.52L43.01 0.52L43.01 9.98L42.88 9.98ZM45.60 10.50L46.87 10.50L46.87 5.46L46.80 2.69L46.84 2.69L47.67 5.35L49.31 10.50L50.67 10.50L50.67 0.04L49.39 0.04L49.39 3.72L49.53 7.24L49.49 7.24L48.51 3.79L47.32 0.04L45.60 0.04ZM46.91 0.63L49.81 9.73L49.97 9.73L49.97 0.56L50.09 0.56L50.09 9.86L49.73 9.86L46.82 0.76L46.30 0.76L46.30 9.97L46.17 9.97L46.17 0.63ZM56.60 3.50L57.88 3.50L57.88 1.60L56.32 0.04L54.19 0.04L52.64 1.60L52.64 8.86L54.18 10.50L56.34 10.50L57.88 8.86L57.88 4.80L55.19 4.80L55.19 6.06L56.60 6.06L56.60 8.36L55.75 9.28L54.77 9.28L53.91 8.36L53.91 2.11L54.75 1.26L55.76 1.26L56.60 2.11ZM57.18 2.97L57.18 1.88L55.99 0.70L54.52 0.70L53.34 1.88L53.34 8.58L54.53 9.86L55.99 9.86L57.18 8.58L57.18 5.49L55.72 5.49L55.72 5.36L57.30 5.36L57.30 8.64L56.04 9.98L54.47 9.98L53.21 8.64L53.21 1.82L54.47 0.57L56.04 0.57L57.30 1.82L57.30 2.97ZM63.03 0L63.03 8.88L64.54 10.56L66.51 10.56L68.01 8.88L68.01 0L66.74 0L66.74 8.40L65.94 9.28L65.10 9.28L64.30 8.40L64.30 0ZM63.60 0.50L63.73 0.50L63.73 8.61L64.85 9.86L66.19 9.86L67.31 8.61L67.31 0.52L67.44 0.52L67.44 8.67L66.25 9.98L64.79 9.98L63.60 8.67ZM69.99 10.50L71.26 10.50L71.26 5.46L71.19 2.69L71.23 2.69L72.06 5.35L73.70 10.50L75.05 10.50L75.05 0.04L73.78 0.04L73.78 3.72L73.92 7.24L73.88 7.24L72.90 3.79L71.71 0.04L69.99 0.04ZM71.30 0.63L74.20 9.73L74.35 9.73L74.35 0.56L74.48 0.56L74.48 9.86L74.12 9.86L71.20 0.76L70.69 0.76L70.69 9.97L70.56 9.97L70.56 0.63ZM78.12 7.03L76.86 7.03L76.86 8.95L78.40 10.57L80.40 10.57L81.94 8.95L81.94 6.12L78.19 3.49L78.19 2.03L78.96 1.20L79.84 1.20L80.63 2.03L80.63 3.12L81.89 3.12L81.89 1.51L80.39-0.06L78.43-0.06L76.93 1.51L76.93 4.14L80.70 6.78L80.70 8.44L79.87 9.31L78.95 9.31L78.12 8.44ZM77.55 7.56L77.55 8.67L78.69 9.87L80.12 9.87L81.27 8.67L81.27 6.48L77.49 3.85L77.49 1.76L78.67 0.52L80.15 0.52L81.33 1.76L81.33 2.58L81.20 2.58L81.20 1.81L80.09 0.64L78.72 0.64L77.62 1.81L77.62 3.79L81.38 6.41L81.38 8.72L80.18 10.00L78.64 10.00L77.42 8.72L77.42 7.56ZM87.54 3.09L88.82 3.09L88.82 1.51L87.29-0.08L85.30-0.08L83.78 1.51L83.78 8.88L85.29 10.57L87.29 10.57L88.82 8.88L88.82 7.22L87.54 7.24L87.54 8.40L86.73 9.30L85.85 9.30L85.05 8.40L85.05 2.02L85.83 1.19L86.74 1.19L87.54 2.02ZM88.12 2.56L88.12 1.79L86.98 0.62L85.60 0.62L84.48 1.79L84.48 8.61L85.60 9.87L86.98 9.87L88.12 8.61L88.12 7.76L88.24 7.76L88.24 8.67L87.04 10.00L85.54 10.00L84.35 8.67L84.35 1.74L85.54 0.49L87.04 0.49L88.24 1.74L88.24 2.56ZM89.98 10.50L91.27 10.50L91.67 7.77L93.86 7.77L94.26 10.50L95.55 10.50L94.00 0.01L91.53 0.01ZM93.67 6.50L91.85 6.50L92.62 1.29L92.89 1.29ZM93.49 0.59L94.89 9.97L94.77 9.97L94.35 7.20L91.17 7.20L90.76 9.97L90.64 9.97C91.06 7.07 91.60 3.47 92.04 0.59ZM92.13 0.71L91.20 7.07L94.33 7.07L93.39 0.71ZM96.91 0.01L96.91 10.50L101.23 10.50L101.23 9.28L98.18 9.28L98.18 0.01ZM97.48 0.59L97.61 0.59L97.61 9.86L100.66 9.86L100.66 9.98L97.48 9.98ZM101.86 10.50L103.15 10.50L103.56 7.77L105.74 7.77L106.15 10.50L107.44 10.50L105.88 0.01L103.42 0.01ZM105.56 6.50L103.74 6.50L104.51 1.29L104.78 1.29ZM105.38 0.59L106.78 9.97L106.65 9.97L106.23 7.20L103.05 7.20L102.65 9.97L102.52 9.97C102.94 7.07 103.49 3.47 103.92 0.59ZM104.02 0.71L103.08 7.07L106.22 7.07L105.28 0.71ZM109.54 9.80L111.89 9.80L113.04 8.64L113.04 6.50L111.80 5.26L109.54 5.26ZM108.82 10.50L112.18 10.50L113.75 8.93L113.75 6.13L112.70 5.10L113.47 4.17L113.47 1.61L111.90 0.03L108.82 0.03ZM110.11 4.55L110.11 1.33L111.37 1.33L112.18 2.14L112.18 3.67L111.44 4.55ZM110.11 5.84L111.57 5.84L112.46 6.72L112.46 8.40L111.65 9.21L110.11 9.21ZM109.41 0.62L111.66 0.62L112.90 1.85L112.90 3.95L111.92 5.19L113.18 6.44L113.18 8.69L111.94 9.93L109.41 9.93ZM111.61 0.74L109.54 0.74L109.54 5.14L111.79 5.14L112.77 3.91L112.77 1.90ZM115.71 0.01L115.71 10.50L120.04 10.50L120.04 9.28L116.98 9.28L116.98 0.01ZM116.28 0.59L116.41 0.59L116.41 9.86L119.46 9.86L119.46 9.98L116.28 9.98ZM122.68 4.68L122.68 1.29L125.71 1.29L125.71 0.01C124.01 0.01 123.10 0.01 121.41 0.01L121.41 10.50L125.90 10.50L125.90 9.23L122.68 9.23L122.68 5.95L125.22 5.95L125.22 4.68ZM125.13 0.59L125.13 0.71L122.11 0.71L122.11 5.24L124.68 5.24L124.68 5.38L122.11 5.38L122.11 9.80L125.33 9.80L125.33 9.93L121.98 9.93L121.98 0.59Z"></path></g> <linearGradient data-v-1084b650="" gradientTransform="rotate(25)" id="e306c0ee-f551-6ebb-4781-ae9ff00c7079" x1="0%" y1="0%" x2="100%" y2="0%"><stop data-v-1084b650="" offset="0%" style="stop-color: rgb(106, 79, 76); stop-opacity: 1;"></stop> <stop data-v-1084b650="" offset="100%" style="stop-color: rgb(160, 162, 155); stop-opacity: 1;"></stop></linearGradient> <g data-v-1084b650="" id="2e8e0f3c-c22d-d52e-a92f-f30eae0b63d6" fill="url(#e306c0ee-f551-6ebb-4781-ae9ff00c7079)" stroke="none" transform="matrix(0.13553333091735842,0,0,0.13553333091735842,129.67000036239625,116.45550088882446)"><svg xmlns="http://www.w3.org/2000/svg" viewBox="0 0 20 20"><path d="M15.2 11.2l-5.5 5.5c-.9.9-2 1.3-3.2 1.3-1.2 0-2.3-.5-3.2-1.3-.9-.9-1.3-2-1.3-3.2 0-1.2.5-2.3 1.3-3.2l7.6-7.6c.4-.4.4-1 0-1.4-.4-.4-1-.4-1.4 0L1.9 8.9C.7 10.1 0 11.8 0 13.5s.7 3.4 1.9 4.6C3.1 19.3 4.8 20 6.5 20s3.4-.7 4.6-1.9l5.5-5.5c.4-.4.4-1 0-1.4-.4-.4-1-.4-1.4 0z"></path><circle cx="6.5" cy="13.5" r="3.5"></circle><path d="M10.7 6.3c-.4-.4-1-.4-1.4 0l-1 1c-.4.4-.4 1 0 1.4.2.2.7.5 1.4 0l1-1c.4-.4.4-1 0-1.4zM17.3 5.3l-1 1c-.4.4-.4 1 0 1.4.2.2.7.5 1.4 0l1-1c.4-.4.4-1 0-1.4-.4-.4-1-.4-1.4 0zM11.3 11.7c.2.2.8.5 1.4 0l2-2c.4-.4.4-1 0-1.4-.4-.4-1-.4-1.4 0l-2 2c-.4.4-.4 1 0 1.4zM19.7.3c-.4-.4-1-.4-1.4 0l-1 1c-.4.4-.4 1 0 1.4.2.2.7.6 1.4 0l1-1c.4-.4.4-1 0-1.4zM13.7 5.7l2-2c.4-.4.4-1 0-1.4-.4-.4-1-.4-1.4 0l-2 2c-.4.4-.4 1 0 1.4.2.2.7.6 1.4 0z"></path></svg></g></svg>