<svg data-v-1084b650="" xmlns="http://www.w3.org/2000/svg" viewBox="0 0 300 300"><!----> <!----> <rect data-v-1084b650="" fill="#f9e514" x="0" y="0" width="300px" height="300px" class="logo-background-square"></rect> <!----> <g data-v-1084b650="" id="5b5a060b-4508-5fef-9c3c-4cf3d7c8abca" fill="#000000" transform="matrix(1.9000000000000001,0,0,1.9000000000000001,36.97849994003772,158.42460350990297)"><path d="M5.52 6.16C5.77 5.54 5.89 4.82 5.89 4.17C5.89 3.05 5.31 2.69 3.91 2.69C2.03 2.69 1.51 3.42 1.15 5.08C0.92 6.09 0.87 6.58 0.87 7.11C0.87 7.55 0.98 7.83 1.19 8.06C1.62 8.58 2.37 8.79 2.90 9.25C3.14 9.45 3.22 9.66 3.22 9.97C3.22 10.07 3.21 10.23 3.11 10.68C3.01 11.16 2.87 11.40 2.37 11.40C2.02 11.40 1.88 11.27 1.88 10.91C1.88 10.64 1.95 10.15 2.04 9.93L0.39 9.93C0.14 10.60-0.03 11.51-0.03 12.14C-0.03 13.24 0.60 13.65 1.93 13.65C3.85 13.65 4.56 12.88 5.01 10.36C5.12 9.76 5.17 9.30 5.17 8.95C5.17 8.26 4.97 8.01 4.63 7.73C4.21 7.38 3.74 7.24 3.07 6.75C2.86 6.59 2.77 6.43 2.77 6.09C2.77 5.98 2.79 5.77 2.86 5.49C2.97 5.05 3.05 4.83 3.53 4.83C3.88 4.83 4.02 4.94 4.02 5.25C4.02 5.36 3.99 5.52 3.88 6.16ZM10.43 12.78C10.88 12.14 11.13 11.49 11.62 8.71C12.07 6.16 12.21 5.15 12.21 4.51C12.21 3.00 11.55 2.69 10.11 2.69C8.89 2.69 8.27 2.91 7.84 3.56C7.39 4.21 7.14 4.83 6.64 7.71C6.20 10.16 6.06 11.20 6.06 11.84C6.06 13.36 6.75 13.65 8.18 13.65C9.38 13.65 10.00 13.44 10.43 12.78ZM9.13 11.03C9.04 11.21 8.90 11.28 8.60 11.28C8.19 11.28 8.13 11.14 8.13 10.85C8.13 10.54 8.20 9.95 8.54 8.11C8.95 5.77 9.06 5.39 9.20 5.12C9.27 4.94 9.41 4.86 9.73 4.86C10.04 4.86 10.18 4.94 10.18 5.22C10.18 5.50 10.12 6.03 9.70 8.40C9.35 10.37 9.25 10.75 9.13 11.03ZM19.63 13.47L21.48 2.87L18.63 2.87L16.84 7.48L16.76 7.48L16.69 2.87L13.94 2.87L12.08 13.47L13.89 13.47L15.01 7.11L15.08 7.11L15.41 13.47L16.30 13.47L18.86 7.11L18.93 7.11L17.81 13.47ZM25.28 13.47L25.69 11.12L23.46 11.12L23.81 9.11L26.01 9.11L26.39 6.97L24.19 6.97L24.53 5.11L26.77 5.11L27.16 2.87L22.95 2.87L21.08 13.47ZM29.92 13.47L31.39 5.11L32.89 5.11L33.28 2.87L28.31 2.87L27.92 5.11L29.41 5.11L27.94 13.47ZM37.90 13.47L39.76 2.87L37.73 2.87L37.00 6.97L35.77 6.97L36.50 2.87L34.47 2.87L32.61 13.47L34.64 13.47L35.39 9.11L36.62 9.11L35.87 13.47ZM41.40 13.47L43.26 2.87L41.23 2.87L39.37 13.47ZM48.06 13.47L49.92 2.87L48.12 2.87L47.46 6.72L47.38 6.72L46.70 2.87L44.76 2.87L42.90 13.47L44.70 13.47L45.71 7.63L45.79 7.63L47.04 13.47ZM53.30 9.87C53.12 10.78 53.07 11.31 52.35 11.31C51.93 11.31 51.77 11.17 51.77 10.85C51.77 10.58 51.86 10.02 52.30 7.50C52.61 5.75 52.71 5.40 52.84 5.12C52.93 4.94 53.09 4.86 53.42 4.86C53.80 4.86 53.97 4.91 53.97 5.28C53.97 5.47 53.93 5.91 53.84 6.10L55.68 6.10C55.85 5.52 55.93 4.83 55.93 4.35C55.93 4.23 55.92 4.12 55.90 4.00C55.80 3.05 55.20 2.69 53.82 2.69C52.61 2.69 52.00 2.90 51.56 3.53C51.11 4.17 50.86 4.80 50.48 6.90C49.91 10.14 49.78 11.19 49.78 11.84C49.78 13.36 50.39 13.65 51.88 13.65C53.09 13.65 53.70 13.44 54.14 12.78C54.53 12.22 54.78 11.65 55.20 9.32C55.37 8.34 55.48 7.60 55.54 7.24L52.84 7.24L52.46 9.37L53.38 9.37ZM62.19 10.21C62.01 11.19 61.89 11.28 61.43 11.28C61.08 11.28 60.94 11.24 60.94 10.93C60.94 10.78 60.98 10.54 61.04 10.21L62.33 2.87L60.30 2.87L59.01 10.21C58.87 10.99 58.81 11.51 58.81 11.89C58.81 13.41 59.54 13.65 60.98 13.65C62.19 13.65 62.80 13.47 63.22 12.88C63.57 12.40 63.81 11.96 64.16 10.21L65.45 2.87L63.48 2.87ZM70.13 13.47L71.99 2.87L70.18 2.87L69.52 6.72L69.44 6.72L68.77 2.87L66.82 2.87L64.96 13.47L66.77 13.47L67.77 7.63L67.86 7.63L69.10 13.47ZM77.21 6.16C77.46 5.54 77.59 4.82 77.59 4.17C77.59 3.05 77.00 2.69 75.60 2.69C73.72 2.69 73.21 3.42 72.84 5.08C72.62 6.09 72.56 6.58 72.56 7.11C72.56 7.55 72.67 7.83 72.88 8.06C73.32 8.58 74.06 8.79 74.59 9.25C74.83 9.45 74.91 9.66 74.91 9.97C74.91 10.07 74.90 10.23 74.80 10.68C74.70 11.16 74.56 11.40 74.06 11.40C73.71 11.40 73.57 11.27 73.57 10.91C73.57 10.64 73.64 10.15 73.74 9.93L72.09 9.93C71.83 10.60 71.67 11.51 71.67 12.14C71.67 13.24 72.30 13.65 73.63 13.65C75.54 13.65 76.26 12.88 76.71 10.36C76.82 9.76 76.86 9.30 76.86 8.95C76.86 8.26 76.66 8.01 76.33 7.73C75.91 7.38 75.43 7.24 74.76 6.75C74.55 6.59 74.47 6.43 74.47 6.09C74.47 5.98 74.48 5.77 74.55 5.49C74.66 5.05 74.75 4.83 75.22 4.83C75.57 4.83 75.71 4.94 75.71 5.25C75.71 5.36 75.68 5.52 75.57 6.16ZM81.27 9.41C81.12 10.28 81.03 10.65 80.84 11.05C80.75 11.21 80.60 11.28 80.33 11.28C79.86 11.28 79.81 11.16 79.81 10.82C79.81 10.50 79.90 9.91 80.35 7.46C80.64 5.75 80.72 5.40 80.88 5.12C80.95 4.94 81.09 4.86 81.41 4.86C81.73 4.86 81.89 4.94 81.90 5.12C81.90 5.32 81.89 5.63 81.69 6.75L83.54 6.75C83.73 5.89 83.90 5.11 83.90 4.34C83.90 3.16 83.38 2.69 81.79 2.69C80.58 2.69 79.97 2.90 79.53 3.53C79.09 4.17 78.83 4.80 78.36 7.46C77.90 10.09 77.76 11.19 77.76 11.98C77.76 13.33 78.43 13.65 79.91 13.65C81.66 13.65 82.32 12.95 82.73 11.44C82.92 10.67 83.02 10.04 83.09 9.41ZM88.66 13.47L89.57 2.87L86.24 2.87L83.36 13.47L85.36 13.47L85.93 11.02L86.88 11.02L86.63 13.47ZM87.18 8.88L86.39 8.88L87.39 5.08L87.53 5.08ZM93.87 13.47L94.28 11.12L92.23 11.12L93.69 2.87L91.71 2.87L89.85 13.47ZM100.10 13.47L101.01 2.87L97.68 2.87L94.79 13.47L96.80 13.47L97.37 11.02L98.32 11.02L98.07 13.47ZM98.62 8.88L97.83 8.88L98.83 5.08L98.97 5.08ZM104.30 13.47C105.80 13.47 106.46 12.82 106.82 11.26C106.97 10.51 107.13 9.79 107.13 9.06C107.13 8.46 106.93 8.25 106.62 8.05L106.64 7.95C107.11 7.63 107.34 7.38 107.55 6.44C107.67 5.80 107.81 5.17 107.81 4.52C107.81 3.36 107.30 2.87 105.98 2.87L103.15 2.87L101.29 13.47ZM103.63 11.33L104.05 8.97L104.72 8.97C104.97 8.97 105.10 9.07 105.10 9.44C105.10 9.81 105.03 10.16 104.96 10.49C104.82 11.10 104.59 11.33 104.19 11.33ZM104.36 7.22L104.76 4.97L105.29 4.97C105.60 4.97 105.73 5.03 105.73 5.35C105.73 5.75 105.63 6.15 105.53 6.50C105.39 7.01 105.21 7.22 104.89 7.22ZM111.72 13.47L112.13 11.12L110.08 11.12L111.54 2.87L109.56 2.87L107.70 13.47ZM117.12 13.47L117.53 11.12L115.30 11.12L115.65 9.11L117.85 9.11L118.23 6.97L116.03 6.97L116.37 5.11L118.61 5.11L119.00 2.87L114.79 2.87L112.92 13.47Z"></path></g> <!----> <g data-v-1084b650="" id="e6a355b2-547f-55cf-945e-f6324d97e356" stroke="none" fill="#000000" transform="matrix(0.138826655069987,0,0,0.138826655069987,129.17600173950194,115.64040298461913)"><svg xmlns="http://www.w3.org/2000/svg" viewBox="0 0 20 20"><path d="M15.2 11.2l-5.5 5.5c-.9.9-2 1.3-3.2 1.3-1.2 0-2.3-.5-3.2-1.3-.9-.9-1.3-2-1.3-3.2 0-1.2.5-2.3 1.3-3.2l7.6-7.6c.4-.4.4-1 0-1.4-.4-.4-1-.4-1.4 0L1.9 8.9C.7 10.1 0 11.8 0 13.5s.7 3.4 1.9 4.6C3.1 19.3 4.8 20 6.5 20s3.4-.7 4.6-1.9l5.5-5.5c.4-.4.4-1 0-1.4-.4-.4-1-.4-1.4 0z"></path><circle cx="6.5" cy="13.5" r="3.5"></circle><path d="M10.7 6.3c-.4-.4-1-.4-1.4 0l-1 1c-.4.4-.4 1 0 1.4.2.2.7.5 1.4 0l1-1c.4-.4.4-1 0-1.4zM17.3 5.3l-1 1c-.4.4-.4 1 0 1.4.2.2.7.5 1.4 0l1-1c.4-.4.4-1 0-1.4-.4-.4-1-.4-1.4 0zM11.3 11.7c.2.2.8.5 1.4 0l2-2c.4-.4.4-1 0-1.4-.4-.4-1-.4-1.4 0l-2 2c-.4.4-.4 1 0 1.4zM19.7.3c-.4-.4-1-.4-1.4 0l-1 1c-.4.4-.4 1 0 1.4.2.2.7.6 1.4 0l1-1c.4-.4.4-1 0-1.4zM13.7 5.7l2-2c.4-.4.4-1 0-1.4-.4-.4-1-.4-1.4 0l-2 2c-.4.4-.4 1 0 1.4.2.2.7.6 1.4 0z"></path></svg></g></svg>