<svg data-v-1084b650="" xmlns="http://www.w3.org/2000/svg" viewBox="0 0 300 300"><!----> <!----> <rect data-v-1084b650="" fill="#ffffff" x="0" y="0" width="300px" height="300px" class="logo-background-square"></rect> <!----> <linearGradient data-v-1084b650="" gradientTransform="rotate(25)" id="a67cf897-ca58-4d34-d557-3e8884ec2949" x1="0%" y1="0%" x2="100%" y2="0%"><stop data-v-1084b650="" offset="0%" style="stop-color: rgb(106, 79, 76); stop-opacity: 1;"></stop> <stop data-v-1084b650="" offset="100%" style="stop-color: rgb(160, 162, 155); stop-opacity: 1;"></stop></linearGradient> <g data-v-1084b650="" id="bb7da0a6-2618-23b2-b3b9-66c0f275ee97" fill="url(#a67cf897-ca58-4d34-d557-3e8884ec2949)" stroke="none" transform="matrix(1,0,0,1,0,0)"><svg xmlns="http://www.w3.org/2000/svg" viewBox="0 0 20 20"><path d="M15.2 11.2l-5.5 5.5c-.9.9-2 1.3-3.2 1.3-1.2 0-2.3-.5-3.2-1.3-.9-.9-1.3-2-1.3-3.2 0-1.2.5-2.3 1.3-3.2l7.6-7.6c.4-.4.4-1 0-1.4-.4-.4-1-.4-1.4 0L1.9 8.9C.7 10.1 0 11.8 0 13.5s.7 3.4 1.9 4.6C3.1 19.3 4.8 20 6.5 20s3.4-.7 4.6-1.9l5.5-5.5c.4-.4.4-1 0-1.4-.4-.4-1-.4-1.4 0z"></path><circle cx="6.5" cy="13.5" r="3.5"></circle><path d="M10.7 6.3c-.4-.4-1-.4-1.4 0l-1 1c-.4.4-.4 1 0 1.4.2.2.7.5 1.4 0l1-1c.4-.4.4-1 0-1.4zM17.3 5.3l-1 1c-.4.4-.4 1 0 1.4.2.2.7.5 1.4 0l1-1c.4-.4.4-1 0-1.4-.4-.4-1-.4-1.4 0zM11.3 11.7c.2.2.8.5 1.4 0l2-2c.4-.4.4-1 0-1.4-.4-.4-1-.4-1.4 0l-2 2c-.4.4-.4 1 0 1.4zM19.7.3c-.4-.4-1-.4-1.4 0l-1 1c-.4.4-.4 1 0 1.4.2.2.7.6 1.4 0l1-1c.4-.4.4-1 0-1.4zM13.7 5.7l2-2c.4-.4.4-1 0-1.4-.4-.4-1-.4-1.4 0l-2 2c-.4.4-.4 1 0 1.4.2.2.7.6 1.4 0z"></path></svg></g></svg>