<svg data-v-1084b650="" xmlns="http://www.w3.org/2000/svg" viewBox="0 0 300 300"><!----> <!----> <rect data-v-1084b650="" fill="#f9e514" x="0" y="0" width="300px" height="300px" class="logo-background-square"></rect> <!----> <g data-v-1084b650="" id="9182b1a5-e6e0-1c4c-6280-2a6f7deb28cb" fill="#000000" transform="matrix(2.2,0,0,2.2,39.856999206542966,162.58289687633516)"><path d="M3.93 1.16L3.93 1.16L3.93 1.16Q4.27 1.57 4.27 2.07L4.27 2.07L4.27 3.12L4.27 3.40L3.99 3.40L3.01 3.40L2.73 3.40L2.73 3.12L2.73 2.23L1.55 2.23L1.55 3.98L1.55 4.05L2.87 4.05L2.87 4.05Q3.46 4.05 3.86 4.45L3.86 4.45L3.86 4.45Q4.27 4.86 4.27 5.45L4.27 5.45L4.27 6.85L4.27 9.11L4.27 9.11Q4.27 9.62 3.93 10.02L3.93 10.02L3.93 10.02Q3.60 10.40 3.09 10.49L3.09 10.49L3.07 10.50L3.05 10.50L1.22 10.50L1.20 10.50L1.18 10.49L1.18 10.49Q0.67 10.40 0.34 10.02L0.34 10.02L0.34 10.02Q0 9.62 0 9.11L0 9.11L0 8.06L0 7.78L0.28 7.78L1.27 7.78L1.55 7.78L1.55 8.06L1.55 8.96L2.73 8.96L2.73 5.60L1.40 5.60L1.40 5.60Q0.81 5.60 0.41 5.19L0.41 5.19L0.41 5.19Q0 4.79 0 4.20L0 4.20L0 4.10L0 3.98L0 2.07L0 2.07Q0 1.57 0.34 1.16L0.34 1.16L0.34 1.16Q0.67 0.78 1.18 0.70L1.18 0.70L1.20 0.70L1.22 0.70L3.05 0.70L3.07 0.70L3.09 0.70L3.09 0.70Q3.60 0.78 3.93 1.16ZM6.10 0.70L8.69 0.70L8.69 0.70Q9.09 0.77 9.35 1.08L9.35 1.08L9.35 1.08Q9.62 1.40 9.62 1.81L9.62 1.81L9.62 2.86L9.62 3.28L9.62 3.30L9.62 8.36L9.62 9.41L9.62 9.41Q9.62 9.81 9.35 10.12L9.35 10.12L9.35 10.12Q9.09 10.43 8.69 10.50L8.69 10.50L6.10 10.50L6.10 10.50Q5.71 10.43 5.45 10.12L5.45 10.12L5.45 10.12Q5.18 9.81 5.18 9.41L5.18 9.41L5.18 1.81L5.18 1.81Q5.18 1.40 5.45 1.08L5.45 1.08L5.45 1.08Q5.71 0.77 6.10 0.70L6.10 0.70ZM8.08 3.30L8.08 3.28L8.08 2.86L8.08 2.24L6.72 2.24L6.72 8.97L8.08 8.97L8.08 8.36L8.08 3.30ZM14.27 0.70L14.27 0.70L16.66 0.70L16.66 10.50L15.12 10.50L15.12 5.24L14.27 9.77L12.92 9.77L12.07 5.24L12.07 10.50L10.53 10.50L10.53 0.70L12.92 0.70L13.59 4.61L14.27 0.70ZM19.11 0.70L19.11 0.70L21.57 0.70L21.57 1.68L21.57 2.24L19.11 2.24L19.11 4.07L21.07 4.07L21.07 4.35L21.07 5.33L21.07 5.61L19.11 5.61L19.11 8.96L21.57 8.96L21.57 9.52L21.57 10.50L19.11 10.50L17.57 10.50L17.57 9.48L17.57 4.07L19.11 4.07L17.57 1.04L17.57 0.70L19.11 0.70ZM26.88 0.70L26.88 0.70L26.88 2.24L25.49 2.24L25.49 8.67L25.49 10.50L23.95 10.50L23.95 8.67L23.95 2.24L22.47 2.24L22.47 0.70L23.95 0.70L25.49 0.70L26.88 0.70ZM30.69 0.70L30.69 0.70L32.23 0.70L32.23 10.50L30.69 10.50L30.69 5.60L29.33 5.60L29.33 10.50L27.79 10.50L27.79 4.06L29.32 4.06L27.79 1.02L27.79 0.70L29.33 0.70L29.33 4.06L30.69 4.06L30.69 0.70ZM34.68 10.50L34.68 10.50L33.14 10.50L33.14 0.70L34.68 0.70L34.68 10.50ZM39.09 0.70L39.09 0.70L40.07 0.70L40.07 0.70L40.07 10.50L40.07 10.50L38.53 10.50L38.53 10.50L37.13 6.12L37.13 10.50L37.13 10.50L35.59 10.50L35.59 0.70L36.15 0.70L36.15 0.70L37.13 0.70L37.13 0.70L37.13 0.73L38.53 5.35L38.53 0.70L39.09 0.70L39.09 0.70ZM45.43 3.30L43.89 3.30L43.89 2.24L42.52 2.24L42.52 8.97L43.89 8.97L43.89 5.60L43.25 5.60L43.25 4.06L45.43 4.06L45.43 9.41L45.43 9.41Q45.43 9.81 45.16 10.12L45.16 10.12L45.16 10.12Q44.90 10.43 44.49 10.50L44.49 10.50L41.92 10.50L41.92 10.50Q41.51 10.43 41.24 10.12L41.24 10.12L41.24 10.12Q40.98 9.81 40.98 9.41L40.98 9.41L40.98 1.81L40.98 1.81Q40.98 1.40 41.24 1.08L41.24 1.08L41.24 1.08Q41.51 0.77 41.92 0.70L41.92 0.70L44.49 0.70L44.49 0.70Q44.90 0.77 45.16 1.08L45.16 1.08L45.16 1.08Q45.43 1.40 45.43 1.81L45.43 1.81L45.43 3.30ZM51.56 0.67L53.10 0.67L53.10 9.11L53.10 9.11Q53.10 9.65 52.77 10.02L52.77 10.02L52.77 10.02Q52.43 10.42 51.94 10.49L51.94 10.49L51.91 10.50L51.88 10.50L49.85 10.50L49.84 10.50L49.81 10.49L49.81 10.49Q49.32 10.42 48.99 10.02L48.99 10.02L48.99 10.02Q48.65 9.65 48.65 9.11L48.65 9.11L48.65 0.67L50.19 0.67L50.19 8.97L51.56 8.97L51.56 0.67ZM57.51 0.70L57.51 0.70L58.49 0.70L58.49 0.70L58.49 10.50L58.49 10.50L56.95 10.50L56.95 10.50L55.55 6.12L55.55 10.50L55.55 10.50L54.01 10.50L54.01 0.70L54.57 0.70L54.57 0.70L55.55 0.70L55.55 0.70L55.55 0.73L56.95 5.35L56.95 0.70L57.51 0.70L57.51 0.70ZM63.34 1.16L63.34 1.16L63.34 1.16Q63.67 1.57 63.67 2.07L63.67 2.07L63.67 3.12L63.67 3.40L63.39 3.40L62.41 3.40L62.13 3.40L62.13 3.12L62.13 2.23L60.96 2.23L60.96 3.98L60.96 4.05L62.27 4.05L62.27 4.05Q62.86 4.05 63.27 4.45L63.27 4.45L63.27 4.45Q63.67 4.86 63.67 5.45L63.67 5.45L63.67 6.85L63.67 9.11L63.67 9.11Q63.67 9.62 63.34 10.02L63.34 10.02L63.34 10.02Q63.00 10.40 62.50 10.49L62.50 10.49L62.47 10.50L62.45 10.50L60.62 10.50L60.61 10.50L60.58 10.49L60.58 10.49Q60.07 10.40 59.74 10.02L59.74 10.02L59.74 10.02Q59.40 9.62 59.40 9.11L59.40 9.11L59.40 8.06L59.40 7.78L59.68 7.78L60.68 7.78L60.96 7.78L60.96 8.06L60.96 8.96L62.13 8.96L62.13 5.60L60.80 5.60L60.80 5.60Q60.21 5.60 59.81 5.19L59.81 5.19L59.81 5.19Q59.40 4.79 59.40 4.20L59.40 4.20L59.40 4.10L59.40 3.98L59.40 2.07L59.40 2.07Q59.40 1.57 59.74 1.16L59.74 1.16L59.74 1.16Q60.07 0.78 60.58 0.70L60.58 0.70L60.61 0.70L60.62 0.70L62.45 0.70L62.47 0.70L62.50 0.70L62.50 0.70Q63.00 0.78 63.34 1.16ZM68.10 0.70L68.10 0.70L68.10 0.70Q68.50 0.77 68.77 1.08L68.77 1.08L68.77 1.08Q69.03 1.39 69.03 1.81L69.03 1.81L69.03 2.84L69.03 3.29L67.49 3.29L67.49 2.84L67.49 2.23L66.12 2.23L66.12 8.97L67.49 8.97L67.49 8.34L67.49 7.90L69.03 7.90L69.03 8.34L69.03 9.39L69.03 9.39Q69.03 9.81 68.77 10.12L68.77 10.12L68.77 10.12Q68.50 10.43 68.10 10.50L68.10 10.50L65.52 10.50L65.52 10.50Q65.11 10.43 64.85 10.12L64.85 10.12L64.85 10.12Q64.58 9.81 64.58 9.39L64.58 9.39L64.58 1.81L64.58 1.81Q64.58 1.39 64.85 1.08L64.85 1.08L64.85 1.08Q65.11 0.77 65.52 0.70L65.52 0.70L68.10 0.70ZM73.44 0.70L73.44 0.70L75.03 10.50L73.46 10.50L72.49 3.70L72.10 6.90L72.10 6.92L72.49 6.92L72.49 8.46L71.85 8.46L71.53 10.50L69.97 10.50L70.29 8.46L69.94 8.46L69.94 6.92L70.55 6.92L71.54 0.70L73.44 0.70ZM77.11 8.96L77.11 8.96L79.55 8.96L79.55 10.50L77.11 10.50L75.57 10.50L75.57 10.50L75.57 8.96L75.57 8.96L75.57 0.70L77.11 0.70L77.11 8.96ZM83.99 0.70L83.99 0.70L85.57 10.50L84.00 10.50L83.03 3.70L82.64 6.90L82.64 6.92L83.03 6.92L83.03 8.46L82.39 8.46L82.07 10.50L80.51 10.50L80.84 8.46L80.49 8.46L80.49 6.92L81.09 6.92L82.08 0.70L83.99 0.70ZM90.30 1.82L90.30 4.54L90.30 4.54Q90.09 4.79 89.71 4.90L89.71 4.90L89.71 4.90Q90.06 5.00 90.26 5.26L90.26 5.26L90.26 5.26Q90.30 5.39 90.30 5.53L90.30 5.53L90.30 9.38L90.30 9.38Q90.30 9.84 89.97 10.17L89.97 10.17L89.97 10.17Q89.64 10.50 89.18 10.50L89.18 10.50L86.11 10.50L86.11 4.07L87.65 4.07L88.76 4.07L88.76 2.25L87.65 2.25L87.65 4.07L86.11 1.02L86.11 0.70L89.18 0.70L89.18 0.70Q89.64 0.70 89.97 1.03L89.97 1.03L89.97 1.03Q90.30 1.36 90.30 1.82L90.30 1.82ZM88.76 8.95L88.76 5.61L87.65 5.61L87.65 8.95L88.76 8.95ZM92.75 8.96L92.75 8.96L95.19 8.96L95.19 10.50L92.75 10.50L91.21 10.50L91.21 10.50L91.21 8.96L91.21 8.96L91.21 0.70L92.75 0.70L92.75 8.96ZM97.66 0.70L97.66 0.70L100.13 0.70L100.13 1.68L100.13 2.24L97.66 2.24L97.66 4.07L99.62 4.07L99.62 4.35L99.62 5.33L99.62 5.61L97.66 5.61L97.66 8.96L100.13 8.96L100.13 9.52L100.13 10.50L97.66 10.50L96.12 10.50L96.12 9.48L96.12 4.07L97.66 4.07L96.12 1.04L96.12 0.70L97.66 0.70Z"></path></g> <!----> <g data-v-1084b650="" id="3bbf60bc-7a28-88c9-e884-966097e8d811" stroke="none" fill="#000000" transform="matrix(0.17774794754128545,0,0,0.17774794754128545,121.0080884924364,107.91048514309304)"><svg xmlns="http://www.w3.org/2000/svg" viewBox="0 0 90 90"><path d="M49.8 57.3L46 68.2V68H15.7l16.8 13h23.1l9.8-30.3-10.8-7.8z"></path><path d="M53.7 39.6l14 10.2-9.5 29.3L75 66.9l7.1-22-25.7-18.6-10.5 7.6z"></path><path d="M81.4 41.9L75 22.2 56.3 8.7 30.8 27.2l4 12.4 21.6-15.8z"></path><path d="M34 42.8l-5.4-16.6L53.2 8H32.5L13.8 21.8 23.5 52h13.2L34 42.8z"></path><path d="M39.4 54H22.1l-9.5-29.1-6.4 19.4L13.4 66h31.5L49 54z"></path></svg></g></svg>